<?xml version="1.0" encoding="UTF-8" standalone="no"?>
<!-- Created with Inkscape (http://www.inkscape.org/) -->

<svg
   xmlns:dc="http://purl.org/dc/elements/1.1/"
   xmlns:cc="http://creativecommons.org/ns#"
   xmlns:rdf="http://www.w3.org/1999/02/22-rdf-syntax-ns#"
   xmlns:svg="http://www.w3.org/2000/svg"
   xmlns="http://www.w3.org/2000/svg"
   xmlns:xlink="http://www.w3.org/1999/xlink"
   xmlns:sodipodi="http://sodipodi.sourceforge.net/DTD/sodipodi-0.dtd"
   xmlns:inkscape="http://www.inkscape.org/namespaces/inkscape"
   version="1.1"
   width="100"
   height="100"
   id="svg2"
   inkscape:version="0.48.2 r9819"
   sodipodi:docname="Zeichnung.svg">
  <sodipodi:namedview
     pagecolor="#ffffff"
     bordercolor="#666666"
     borderopacity="1"
     objecttolerance="10"
     gridtolerance="10"
     guidetolerance="10"
     inkscape:pageopacity="0"
     inkscape:pageshadow="2"
     inkscape:window-width="1360"
     inkscape:window-height="706"
     id="namedview3009"
     showgrid="false"
     inkscape:zoom="2.585"
     inkscape:cx="123.87563"
     inkscape:cy="23.72047"
     inkscape:window-x="-8"
     inkscape:window-y="-8"
     inkscape:window-maximized="1"
     inkscape:current-layer="svg2" />
  <defs
     id="defs4">
    <linearGradient
       id="linearGradient3016">
      <stop
         offset="0"
         style="stop-color:#b20207;stop-opacity:1"
         id="stop3018" />
      <stop
         offset="1"
         style="stop-color:#b20207;stop-opacity:0.70588237"
         id="stop3020" />
    </linearGradient>
    <linearGradient
       id="linearGradient3787">
      <stop
         id="stop3789"
         style="stop-color:#b20207;stop-opacity:1"
         offset="0" />
      <stop
         id="stop3791"
         style="stop-color:#b20207;stop-opacity:0.70588237"
         offset="1" />
    </linearGradient>
    <linearGradient
       x1="137.96429"
       y1="635.59711"
       x2="137.96429"
       y2="529.54749"
       id="linearGradient3793"
       xlink:href="#linearGradient3787"
       gradientUnits="userSpaceOnUse" />
  </defs>
  <metadata
     id="metadata7">
    <rdf:RDF>
      <cc:Work
         rdf:about="">
        <dc:format>image/svg+xml</dc:format>
        <dc:type
           rdf:resource="http://purl.org/dc/dcmitype/StillImage" />
        <dc:title />
      </cc:Work>
    </rdf:RDF>
  </metadata>
  <rect
     style="fill:#c00000;fill-opacity:1;stroke:none"
     id="rect2985"
     y="-2.9492187e-006"
     x="-1.9580078e-007"
     rx="5"
     height="100"
     width="100" />
  <path
     inkscape:connector-curvature="0"
     style="fill:#ffffff;stroke:none"
     id="path2998"
     d="m 25.793123,59.69203 c -2.75263,-3.90436 -4.35984,-7.57323 -5.29389,-12.08458 -0.79256,-3.82805 -0.62441,-9.76628 0.38325,-13.53405 1.37858,-5.15463 4.3709,-10.32598 8.14999,-14.08489 3.868,-3.84733 8.08188,-6.24225 13.46822,-7.65449 3.43159,-0.89973 9.02527,-1.10208 12.63548,-0.45707 2.66118,0.47545 6.85533,1.81704 8.88377,2.84167 1.8511,0.93503 5.72538,3.59712 6.63049,4.55595 l 0.81229,0.86048 -9.41642,8.87792 -9.41641,8.87793 4.20212,4.40959 c 11.69488,12.27231 10.87608,11.51954 12.52821,11.51794 2.66352,-0.003 4.31496,-2.85016 2.94848,-5.08412 l -0.50533,-0.82612 2.64257,-2.46488 2.64258,-2.46489 0.70595,0.82181 c 1.00154,1.16592 1.6817,2.7284 2.04628,4.70071 0.84893,4.59271 -1.76678,9.50632 -6.16637,11.58351 -1.64157,0.77506 -1.95532,0.83318 -4.49701,0.83318 -2.63851,0 -2.8002,-0.0334 -4.70962,-0.97413 -1.86199,-0.9173 -2.36935,-1.38404 -8.69836,-8.00164 -3.69656,-3.86515 -7.13626,-7.423 -7.64379,-7.90638 l -0.92278,-0.87886 -1.11154,0.99396 c -0.61135,0.54667 -4.99064,4.65904 -9.73175,9.13862 -4.74113,4.47957 -8.76119,8.17391 -8.93349,8.20966 -0.1723,0.0358 -0.9071,-0.77733 -1.63292,-1.80683 z m 7.43856,-13.27666 c 2.84672,-2.68055 6.00349,-5.66789 21.70672,-20.54157 2.2133,-2.09641 4.05868,-3.91275 4.10081,-4.03635 0.0964,-0.28285 -3.27495,-1.69299 -5.43632,-2.27385 -2.48372,-0.66748 -7.27279,-0.60332 -9.86387,0.13213 -3.48807,0.99007 -6.86727,2.8919 -9.47275,5.33128 -5.74051,5.37457 -8.16864,12.98778 -6.35544,19.92698 0.44638,1.7083 1.63705,4.4774 1.92523,4.4774 0.10599,0 1.63398,-1.35721 3.39562,-3.01602 z" />
  <path
     inkscape:connector-curvature="0"
     style="fill:#ffffff;stroke:none"
     id="path3011"
     d="m 20.002383,88.36225 c 0.0271,-0.0734 0.90106,-3.33136 1.9422,-7.23975 1.04114,-3.90839 2.04623,-7.67235 2.23354,-8.36434 l 0.34053,-1.25819 1.77727,0.0292 1.77726,0.0292 0.40966,1.54948 c 1.03472,3.9136 3.99748,15.03338 4.05011,15.2008 0.0544,0.17297 -0.082,0.187 -1.81774,0.187 l -1.87654,0 -0.24442,-1.14874 c -0.13445,-0.63181 -0.26895,-1.2329 -0.2989,-1.33575 -0.0493,-0.16912 -0.24283,-0.187 -2.02338,-0.187 l -1.96892,0 -0.25602,1.20217 c -0.14082,0.6612 -0.27887,1.26228 -0.30677,1.33575 -0.0378,0.0996 -0.52529,0.13357 -1.91891,0.13357 -1.44692,0 -1.85709,-0.0302 -1.81897,-0.13357 z m 7.54734,-5.82385 c -0.0309,-0.10291 -0.31702,-1.40101 -0.63573,-2.88479 -0.31873,-1.48378 -0.60838,-2.67044 -0.64369,-2.63703 -0.0353,0.0334 -0.34148,1.33158 -0.68038,2.88478 l -0.6162,2.82404 1.31613,0 c 1.20103,0 1.31121,-0.0164 1.25987,-0.187 z m 9.10228,4.65043 c -0.42633,-1.85576 -3.50679,-15.15318 -3.57757,-15.44327 l -0.0587,-0.24044 1.96881,0 1.96881,0 0.81061,5.10256 c 0.44584,2.80641 0.8667,5.41512 0.93525,5.79715 l 0.12464,0.69457 0.0792,-0.48085 c 0.56568,-3.43502 1.76174,-10.89656 1.76174,-10.99048 0,-0.0881 0.56513,-0.12295 1.99642,-0.12295 l 1.99642,0 -0.0621,0.24044 c -0.0341,0.13223 -0.92499,3.94313 -1.97969,8.46864 l -1.91761,8.2282 -1.87254,0.0288 -1.87254,0.0288 -0.3012,-1.31108 z m 10.54971,-7.18836 0,-8.49535 1.82811,0 1.82812,0 0,8.49535 0,8.49536 -1.82812,0 -1.82811,0 0,-8.49536 z m 7.97722,0 0,-8.49535 3.11396,0 c 4.00393,0 4.70662,0.14994 5.73228,1.22312 0.86256,0.90255 1.13909,1.87764 1.13157,3.99008 -0.008,2.10819 -0.32098,3.02831 -1.35851,3.98775 l -0.55708,0.51516 1.28396,3.63729 1.28398,3.63731 -1.87497,0 -1.87496,0 -0.71826,-2.16391 c -0.39505,-1.19015 -0.88114,-2.68085 -1.08022,-3.31265 l -0.36194,-1.14874 -0.53179,0 -0.5318,0 0,3.31265 0,3.31265 -1.82811,0 -1.82811,0 0,-8.49536 z m 5.69908,-1.35218 c 0.47641,-0.20935 0.72701,-0.87952 0.72701,-1.94421 0,-1.05036 -0.15416,-1.52186 -0.61088,-1.86836 -0.25796,-0.19571 -0.4492,-0.23166 -1.23217,-0.23166 l -0.92682,0 0,2.08376 0,2.08378 0.88115,0 c 0.48463,0 1.0074,-0.0554 1.16171,-0.12331 z m 6.63877,9.60711 c 0.036,-0.13224 1.05145,-3.95472 2.25651,-8.49439 l 2.19104,-8.25395 1.7807,-8.5e-4 1.78072,-8.5e-4 2.23864,8.41521 c 1.23125,4.62837 2.23727,8.45244 2.2356,8.49795 -0.002,0.0454 -0.83754,0.0695 -1.85748,0.0535 l -1.85444,-0.0292 -0.27709,-1.31135 -0.27707,-1.31134 -1.99201,0.029 -1.992,0.029 -0.26759,1.30902 -0.2676,1.30904 -1.88171,0 -1.88171,0 0.0655,-0.24045 z m 7.49441,-5.63562 c 0,-0.14655 -1.21489,-5.6967 -1.25555,-5.73591 -0.0182,-0.0175 -0.29513,1.18151 -0.61559,2.66445 -0.32045,1.48291 -0.60931,2.80441 -0.6419,2.93666 -0.0589,0.2388 -0.0506,0.24042 1.22688,0.24042 0.7735,0 1.28616,-0.0422 1.28616,-0.10562 z" />
</svg>
